<svg width="34" height="24" viewBox="0 0 34 24" fill="none" xmlns="http://www.w3.org/2000/svg">
<path fill-rule="evenodd" clip-rule="evenodd" d="M5 0.375C3.90598 0.375 2.85677 0.809597 2.08318 1.58318C1.3096 2.35677 0.875 3.40598 0.875 4.5V19.5C0.875 20.594 1.3096 21.6432 2.08318 22.4168C2.85677 23.1904 3.90598 23.625 5 23.625H29C30.094 23.625 31.1432 23.1904 31.9168 22.4168C32.6904 21.6432 33.125 20.594 33.125 19.5V4.5C33.125 3.40598 32.6904 2.35677 31.9168 1.58318C31.1432 0.809597 30.094 0.375 29 0.375H5ZM10.145 6.579C9.90047 6.41943 9.60349 6.36119 9.3168 6.41657C9.03012 6.47196 8.7762 6.63663 8.6087 6.8758C8.44121 7.11497 8.37326 7.40989 8.41922 7.69823C8.46518 7.98658 8.62145 8.24576 8.855 8.421L16.355 13.671C16.5441 13.8033 16.7692 13.8743 17 13.8743C17.2308 13.8743 17.4559 13.8033 17.645 13.671L25.145 8.421C25.2713 8.33857 25.3798 8.23157 25.4639 8.10638C25.5481 7.98118 25.6062 7.84035 25.6348 7.69225C25.6634 7.54415 25.6619 7.3918 25.6305 7.24428C25.599 7.09675 25.5382 6.95706 25.4517 6.83351C25.3652 6.70995 25.2547 6.60506 25.1268 6.52507C24.9989 6.44508 24.8562 6.39162 24.7073 6.36788C24.5583 6.34413 24.4061 6.35059 24.2597 6.38686C24.1133 6.42313 23.9757 6.48847 23.855 6.579L17 11.3775L10.145 6.579Z" fill="#00BBDC"/>
</svg>
