<svg width="369" height="472" viewBox="0 0 369 472" fill="none" xmlns="http://www.w3.org/2000/svg">
<path fill-rule="evenodd" clip-rule="evenodd" d="M404.5 807.701C627.182 807.701 807.701 627.182 807.701 404.5C807.701 181.818 627.182 1.29856 404.5 1.29856C181.818 1.29856 1.29856 181.818 1.29856 404.5C1.29856 627.182 181.818 807.701 404.5 807.701ZM404.5 809C627.899 809 809 627.899 809 404.5C809 181.101 627.899 0 404.5 0C181.101 0 0 181.101 0 404.5C0 627.899 181.101 809 404.5 809Z" fill="#B0EAF4"/>
<path fill-rule="evenodd" clip-rule="evenodd" d="M404.5 737.579C588.455 737.579 737.579 588.455 737.579 404.5C737.579 220.545 588.455 71.4205 404.5 71.4205C220.545 71.4205 71.4205 220.545 71.4205 404.5C71.4205 588.455 220.545 737.579 404.5 737.579ZM404.5 738.878C589.172 738.878 738.878 589.172 738.878 404.5C738.878 219.828 589.172 70.122 404.5 70.122C219.828 70.122 70.122 219.828 70.122 404.5C70.122 589.172 219.828 738.878 404.5 738.878Z" fill="#8AE0EF"/>
<path fill-rule="evenodd" clip-rule="evenodd" d="M404.5 672.652C552.596 672.652 672.652 552.596 672.652 404.5C672.652 256.404 552.596 136.348 404.5 136.348C256.404 136.348 136.348 256.404 136.348 404.5C136.348 552.596 256.404 672.652 404.5 672.652ZM404.5 673.95C553.313 673.95 673.95 553.313 673.95 404.5C673.95 255.687 553.313 135.05 404.5 135.05C255.687 135.05 135.05 255.687 135.05 404.5C135.05 553.313 255.687 673.95 404.5 673.95Z" fill="#54D1E8"/>
<path fill-rule="evenodd" clip-rule="evenodd" d="M404.5 596.037C510.283 596.037 596.037 510.283 596.037 404.5C596.037 298.717 510.283 212.963 404.5 212.963C298.717 212.963 212.963 298.717 212.963 404.5C212.963 510.283 298.717 596.037 404.5 596.037ZM404.5 597.335C511 597.335 597.335 511 597.335 404.5C597.335 298 511 211.665 404.5 211.665C298 211.665 211.665 298 211.665 404.5C211.665 511 298 597.335 404.5 597.335Z" fill="#33C9E3"/>
<path fill-rule="evenodd" clip-rule="evenodd" d="M404.5 511.631C463.667 511.631 511.631 463.667 511.631 404.5C511.631 345.333 463.667 297.369 404.5 297.369C345.333 297.369 297.369 345.333 297.369 404.5C297.369 463.667 345.333 511.631 404.5 511.631ZM404.5 512.929C464.384 512.929 512.929 464.384 512.929 404.5C512.929 344.616 464.384 296.071 404.5 296.071C344.616 296.071 296.071 344.616 296.071 404.5C296.071 464.384 344.616 512.929 404.5 512.929Z" fill="#00BBDC"/>
</svg>
