<svg width="339" height="472" viewBox="0 0 339 472" fill="none" xmlns="http://www.w3.org/2000/svg">
<path fill-rule="evenodd" clip-rule="evenodd" d="M-65.5 807.701C157.182 807.701 337.701 627.182 337.701 404.5C337.701 181.818 157.182 1.29856 -65.5 1.29856C-288.182 1.29856 -468.701 181.818 -468.701 404.5C-468.701 627.182 -288.182 807.701 -65.5 807.701ZM-65.5 809C157.899 809 339 627.899 339 404.5C339 181.101 157.899 0 -65.5 0C-288.899 0 -470 181.101 -470 404.5C-470 627.899 -288.899 809 -65.5 809Z" fill="#B0EAF4"/>
<path fill-rule="evenodd" clip-rule="evenodd" d="M-65.5 737.579C118.455 737.579 267.579 588.455 267.579 404.5C267.579 220.545 118.455 71.4205 -65.5 71.4205C-249.455 71.4205 -398.579 220.545 -398.579 404.5C-398.579 588.455 -249.455 737.579 -65.5 737.579ZM-65.5 738.878C119.172 738.878 268.878 589.172 268.878 404.5C268.878 219.828 119.172 70.122 -65.5 70.122C-250.172 70.122 -399.878 219.828 -399.878 404.5C-399.878 589.172 -250.172 738.878 -65.5 738.878Z" fill="#8AE0EF"/>
<path fill-rule="evenodd" clip-rule="evenodd" d="M-65.5 672.652C82.5961 672.652 202.652 552.596 202.652 404.5C202.652 256.404 82.5961 136.348 -65.5 136.348C-213.596 136.348 -333.652 256.404 -333.652 404.5C-333.652 552.596 -213.596 672.652 -65.5 672.652ZM-65.5 673.95C83.3133 673.95 203.95 553.313 203.95 404.5C203.95 255.687 83.3133 135.05 -65.5 135.05C-214.313 135.05 -334.95 255.687 -334.95 404.5C-334.95 553.313 -214.313 673.95 -65.5 673.95Z" fill="#54D1E8"/>
<path fill-rule="evenodd" clip-rule="evenodd" d="M-65.5 596.037C40.2829 596.037 126.037 510.283 126.037 404.5C126.037 298.717 40.2829 212.963 -65.5 212.963C-171.283 212.963 -257.037 298.717 -257.037 404.5C-257.037 510.283 -171.283 596.037 -65.5 596.037ZM-65.5 597.335C41.0001 597.335 127.335 511 127.335 404.5C127.335 298 41.0001 211.665 -65.5 211.665C-172 211.665 -258.335 298 -258.335 404.5C-258.335 511 -172 597.335 -65.5 597.335Z" fill="#33C9E3"/>
<path fill-rule="evenodd" clip-rule="evenodd" d="M-65.5 511.631C-6.33328 511.631 41.6308 463.667 41.6308 404.5C41.6308 345.333 -6.33328 297.369 -65.5 297.369C-124.667 297.369 -172.631 345.333 -172.631 404.5C-172.631 463.667 -124.667 511.631 -65.5 511.631ZM-65.5 512.929C-5.61609 512.929 42.9294 464.384 42.9294 404.5C42.9294 344.616 -5.61609 296.071 -65.5 296.071C-125.384 296.071 -173.929 344.616 -173.929 404.5C-173.929 464.384 -125.384 512.929 -65.5 512.929Z" fill="#00BBDC"/>
</svg>
