<svg width="140" height="42" viewBox="0 0 140 42" fill="none" xmlns="http://www.w3.org/2000/svg">
<path fill-rule="evenodd" clip-rule="evenodd" d="M38.6747 14.409C38.6747 6.96283 44.6389 0.926483 51.9961 0.926483C59.3533 0.926483 65.3175 6.96283 65.3175 14.409C65.3175 21.8553 59.3533 27.8916 51.9961 27.8916C44.6389 27.8916 38.6747 21.8553 38.6747 14.409ZM46.6705 14.4069C46.6705 17.3837 49.0549 19.7969 51.9961 19.7969C54.9373 19.7969 57.3217 17.3837 57.3217 14.4069C57.3217 11.4299 54.9373 9.01668 51.9961 9.01668C49.0549 9.01668 46.6705 11.4299 46.6705 14.4069Z" fill="#00BBDC"/>
<path d="M2.7324 1.54268H12.2267C13.7359 1.54268 14.9593 2.78085 14.9593 4.30812V5.5189C14.9593 7.04638 13.7359 8.28455 12.2267 8.28455H8.10776V11.1357H12.1127C13.6217 11.1357 14.8451 12.3739 14.8451 13.9013V14.7651C14.8451 16.2924 13.6217 17.5308 12.1127 17.5308H8.10776V24.4731C8.10776 26.0006 6.88439 27.2387 5.37516 27.2387H2.7324C1.22337 27.2387 0 26.0006 0 24.4731V4.30812C0 2.78085 1.22337 1.54268 2.7324 1.54268Z" fill="#00BBDC"/>
<path d="M70.1445 1.54268H72.6691C73.5504 1.54268 74.3776 1.97289 74.8907 2.69827L81.0772 11.4434V4.30812C81.0772 2.78085 82.3005 1.54268 83.8096 1.54268H86.3001C87.8093 1.54268 89.0327 2.78085 89.0327 4.30812V24.4731C89.0327 26.0006 87.8093 27.2387 86.3001 27.2387H83.7387C82.8568 27.2387 82.0289 26.8077 81.5159 26.0815L75.3676 17.3769V24.4731C75.3676 26.0006 74.1442 27.2387 72.635 27.2387H70.1445C68.6354 27.2387 67.4121 26.0006 67.4121 24.4731V4.30812C67.4121 2.78085 68.6354 1.54268 70.1445 1.54268Z" fill="#00BBDC"/>
<path d="M103.923 1.54268H94.4291C92.9201 1.54268 91.6967 2.78085 91.6967 4.30812V24.4731C91.6967 26.0006 92.9201 27.2387 94.4291 27.2387H104.19C105.699 27.2387 106.922 26.0006 106.922 24.4731V23.2629C106.922 21.7355 105.699 20.4973 104.19 20.4973H99.8044V17.5308H103.809C105.318 17.5308 106.542 16.2924 106.542 14.7651V13.9013C106.542 12.3739 105.318 11.1357 103.809 11.1357H99.8044V8.28455H103.923C105.433 8.28455 106.656 7.04638 106.656 5.5189V4.30812C106.656 2.78085 105.433 1.54268 103.923 1.54268Z" fill="#00BBDC"/>
<path d="M134.13 1.54268H137.268C138.777 1.54268 140 2.78085 140 4.30812V24.4731C140 26.0006 138.777 27.2387 137.268 27.2387H134.13C132.621 27.2387 131.398 26.0006 131.398 24.4731V4.30812C131.398 2.78085 132.621 1.54268 134.13 1.54268Z" fill="#00BBDC"/>
<path fill-rule="evenodd" clip-rule="evenodd" d="M125.9 18.8026C128.049 17.0208 129.289 14.3049 129.289 11.2612C129.289 6.13105 125.463 1.61236 118.071 1.5672C118.032 1.55278 117.995 1.54275 117.961 1.54275H111.939C110.429 1.54275 109.206 2.78091 109.206 4.30818V24.4732C109.206 26.0006 110.429 27.2388 111.939 27.2388H114.581C116.091 27.2388 117.314 26.0006 117.314 24.4732V20.7284L120.327 25.8815C120.819 26.7227 121.713 27.2388 122.679 27.2388H126.975C128.609 27.2388 129.635 25.4544 128.828 24.0168L125.9 18.8026ZM118.478 14.1786H117.314V8.47714H118.478C120.034 8.47714 121.295 9.75356 121.295 11.3279C121.295 12.9024 120.034 14.1786 118.478 14.1786Z" fill="#00BBDC"/>
<path fill-rule="evenodd" clip-rule="evenodd" d="M62.8781 28.705C63.9317 27.834 65.4676 27.9105 66.46 28.8524L68.5133 30.8015C69.6974 31.9258 69.6683 33.8538 68.428 34.9141C58.0945 43.7457 42.8894 42.9351 33.4821 33.414C31.6343 31.5441 27.4635 26.2778 25.1605 19.9455V24.4732C25.1605 26.0006 23.9371 27.2388 22.4279 27.2388H19.7852C18.2761 27.2388 17.0528 26.0006 17.0528 24.4732V4.30818C17.0528 2.78091 18.2761 1.54274 19.7852 1.54274H25.8074C33.1993 1.58769 37.1352 6.13104 37.1352 11.2612C37.1352 14.3049 35.8974 17.045 33.7471 18.8026C34.4948 20.8862 36.9646 25.1281 39.3275 27.4978C45.7154 33.9046 55.8351 34.5279 62.8781 28.705ZM25.1605 14.1786H26.3248C27.8805 14.1786 29.1415 12.9024 29.1415 11.3279C29.1415 9.75356 27.8805 8.47714 26.3248 8.47714H25.1605V14.1786Z" fill="#00BBDC"/>
</svg>
