<svg width="100" height="29" viewBox="0 0 100 29" fill="none" xmlns="http://www.w3.org/2000/svg">
<path fill-rule="evenodd" clip-rule="evenodd" d="M27.6248 9.44514C27.6248 4.22876 31.885 0 37.1401 0C42.3952 0 46.6554 4.22876 46.6554 9.44514C46.6554 14.6617 42.3952 18.8904 37.1401 18.8904C31.885 18.8904 27.6248 14.6617 27.6248 9.44514ZM33.3361 9.44368C33.3361 11.5291 35.0392 13.2196 37.1401 13.2196C39.241 13.2196 40.9441 11.5291 40.9441 9.44368C40.9441 7.35815 39.241 5.66758 37.1401 5.66758C35.0392 5.66758 33.3361 7.35815 33.3361 9.44368Z" fill="white"/>
<path d="M1.95171 0.431676H8.73336C9.81138 0.431676 10.6852 1.29907 10.6852 2.369V3.21721C10.6852 4.28729 9.81138 5.15469 8.73336 5.15469H5.79126V7.15206H8.65192C9.7298 7.15206 10.6036 8.01945 10.6036 9.08953V9.69464C10.6036 10.7646 9.7298 11.6321 8.65192 11.6321H5.79126V16.4956C5.79126 17.5656 4.91742 18.433 3.8394 18.433H1.95171C0.873838 18.433 0 17.5656 0 16.4956V2.369C0 1.29907 0.873838 0.431676 1.95171 0.431676Z" fill="white"/>
<path d="M50.1032 0.431677H51.9065C52.536 0.431677 53.1269 0.733061 53.4934 1.24123L57.9123 7.36762V2.369C57.9123 1.29907 58.7861 0.431677 59.864 0.431677H61.6429C62.721 0.431677 63.5948 1.29907 63.5948 2.369V16.4956C63.5948 17.5656 62.721 18.433 61.6429 18.433H59.8134C59.1834 18.433 58.5921 18.1311 58.2256 17.6223L53.834 11.5243V16.4956C53.834 17.5656 52.9602 18.433 51.8821 18.433H50.1032C49.0253 18.433 48.1515 17.5656 48.1515 16.4956V2.369C48.1515 1.29907 49.0253 0.431677 50.1032 0.431677Z" fill="white"/>
<path d="M74.231 0.431676H67.4493C66.3715 0.431676 65.4976 1.29907 65.4976 2.369V16.4956C65.4976 17.5656 66.3715 18.433 67.4493 18.433H74.4213C75.4992 18.433 76.373 17.5656 76.373 16.4956V15.6478C76.373 14.5777 75.4992 13.7103 74.4213 13.7103H71.2889V11.6321H74.1496C75.2274 11.6321 76.1013 10.7646 76.1013 9.69464V9.08953C76.1013 8.01945 75.2274 7.15206 74.1496 7.15206H71.2889V5.15469H74.231C75.309 5.15469 76.1828 4.28729 76.1828 3.21721V2.369C76.1828 1.29907 75.309 0.431676 74.231 0.431676Z" fill="white"/>
<path d="M95.8071 0.431676H98.0483C99.1262 0.431676 100 1.29907 100 2.369V16.4956C100 17.5656 99.1262 18.433 98.0483 18.433H95.8071C94.7292 18.433 93.8554 17.5656 93.8554 16.4956V2.369C93.8554 1.29907 94.7292 0.431676 95.8071 0.431676Z" fill="white"/>
<path fill-rule="evenodd" clip-rule="evenodd" d="M89.9289 12.5231C91.4632 11.2748 92.349 9.37222 92.349 7.23997C92.349 3.64605 89.6164 0.480489 84.3365 0.448857C84.3088 0.438752 84.2821 0.431723 84.2577 0.431723H79.9561C78.8782 0.431723 78.0044 1.29912 78.0044 2.36905V16.4956C78.0044 17.5657 78.8782 18.4331 79.9561 18.4331H81.8438C82.9218 18.4331 83.7956 17.5657 83.7956 16.4956V13.8722L85.9477 17.4822C86.299 18.0715 86.9376 18.4331 87.6275 18.4331H90.6965C91.8635 18.4331 92.5963 17.183 92.0197 16.1759L89.9289 12.5231ZM84.6273 9.28376H83.7956V5.28961H84.6273C85.7385 5.28961 86.6392 6.18381 86.6392 7.28669C86.6392 8.38971 85.7385 9.28376 84.6273 9.28376Z" fill="white"/>
<path fill-rule="evenodd" clip-rule="evenodd" d="M44.9129 19.4602C45.6655 18.85 46.7626 18.9036 47.4715 19.5635L48.9381 20.929C49.7839 21.7165 49.7631 23.0672 48.8771 23.81C41.4961 29.997 30.6353 29.4291 23.9158 22.7591C22.5959 21.4491 19.6168 17.7599 17.9718 13.3237V16.4956C17.9718 17.5657 17.098 18.4331 16.0199 18.4331H14.1323C13.0544 18.4331 12.1805 17.5657 12.1805 16.4956V2.36905C12.1805 1.29912 13.0544 0.431722 14.1323 0.431722H18.4339C23.7138 0.463207 26.5252 3.64605 26.5252 7.23997C26.5252 9.37221 25.641 11.2918 24.105 12.5231C24.6391 13.9828 26.4033 16.9544 28.0911 18.6145C32.6538 23.1028 39.8822 23.5395 44.9129 19.4602ZM17.9718 9.28376H18.8034C19.9147 9.28376 20.8153 8.38971 20.8153 7.28668C20.8153 6.1838 19.9147 5.28961 18.8034 5.28961H17.9718V9.28376Z" fill="white"/>
</svg>
