<svg width="16" height="16" viewBox="0 0 16 16" fill="none" xmlns="http://www.w3.org/2000/svg">
<path fill-rule="evenodd" clip-rule="evenodd" d="M4.04166 3.85915V2.67581C4.04178 2.32666 4.16715 1.98915 4.395 1.72459C4.62285 1.46004 4.93806 1.28602 5.28333 1.23414L6.29999 1.08164C7.42702 0.912564 8.57297 0.912564 9.69999 1.08164L10.7167 1.23414C11.0621 1.28604 11.3774 1.46019 11.6053 1.72491C11.8331 1.98964 11.9584 2.32735 11.9583 2.67664V3.85998L13.37 3.97414C13.855 4.01318 14.3129 4.21369 14.6704 4.54363C15.028 4.87356 15.2647 5.31387 15.3425 5.79415C15.377 6.00895 15.4084 6.22425 15.4367 6.43998C15.4435 6.49207 15.4336 6.54498 15.4084 6.5911C15.3833 6.63722 15.3441 6.67417 15.2967 6.69665L15.2325 6.72664C10.7092 8.86831 5.29166 8.86831 0.767494 6.72664L0.703328 6.69665C0.655688 6.6743 0.616378 6.6374 0.591066 6.59127C0.565754 6.54514 0.555749 6.49216 0.562494 6.43998C0.590828 6.22414 0.623328 6.00915 0.657494 5.79415C0.735339 5.31387 0.97197 4.87356 1.32955 4.54363C1.68714 4.21369 2.14502 4.01318 2.62999 3.97414L4.04166 3.85915ZM6.48583 2.31748C7.48966 2.16692 8.51033 2.16692 9.51416 2.31748L10.5308 2.46998C10.5802 2.47736 10.6252 2.50219 10.6578 2.53996C10.6903 2.57773 10.7083 2.62594 10.7083 2.67581V3.77164C8.90425 3.6683 7.09574 3.6683 5.29166 3.77164V2.67581C5.29171 2.62594 5.30965 2.57773 5.34222 2.53996C5.37479 2.50219 5.41984 2.47736 5.46916 2.46998L6.48583 2.31748Z" fill="#006779"/>
<path d="M15.5745 8.10727C15.5885 8.13036 15.5967 8.1565 15.5983 8.18344V8.18427C15.6842 9.77677 15.5975 11.3768 15.3425 12.9559C15.2648 13.4364 15.0283 13.8769 14.6707 14.207C14.3131 14.5371 13.8551 14.7377 13.37 14.7768L11.81 14.9018C9.27333 15.1068 6.72583 15.1068 4.18999 14.9018L2.62999 14.7768C2.1449 14.7377 1.68692 14.5371 1.32932 14.207C0.971725 13.8769 0.735168 13.4364 0.657493 12.9559C0.40226 11.3788 0.316494 9.77884 0.401659 8.18344C0.403312 8.1565 0.411485 8.13036 0.425474 8.10727C0.439462 8.08419 0.458849 8.06484 0.481966 8.05091C0.505084 8.03697 0.53124 8.02886 0.558187 8.02727C0.585133 8.02568 0.612062 8.03065 0.636659 8.04177C5.27916 10.0976 10.7208 10.0976 15.3633 8.04177C15.3879 8.03065 15.4149 8.02568 15.4418 8.02727C15.4687 8.02886 15.4949 8.03697 15.518 8.05091C15.5411 8.06484 15.5605 8.08419 15.5745 8.10727Z" fill="#006779"/>
</svg>
