<svg width="18" height="22" viewBox="0 0 18 22" fill="none" xmlns="http://www.w3.org/2000/svg">
<path fill-rule="evenodd" clip-rule="evenodd" d="M3.16922 3.04422C4.71584 1.4976 6.81276 0.62758 9 0.625C11.1872 0.62758 13.2842 1.4976 14.8308 3.04422C16.3774 4.59084 17.2474 6.68776 17.25 8.875C17.2517 10.6615 16.6682 12.3993 15.5888 13.8228L15.588 13.825C15.588 13.825 15.3623 14.1205 15.3293 14.1603L9 21.625L2.67376 14.164C2.637 14.1213 2.412 13.825 2.412 13.825C1.33179 12.401 0.747994 10.6623 0.750005 8.875C0.752586 6.68776 1.62261 4.59084 3.16922 3.04422ZM9 11.875C7.34315 11.875 6 10.5319 6 8.875C6 7.22505 7.33197 5.88621 8.97929 5.87507C8.99379 5.87497 9.00829 5.87498 9.02279 5.87509C10.6585 5.88726 11.9828 7.20851 11.9998 8.84308C11.9999 8.85371 12 8.86436 12 8.875L12 8.87966C11.9975 10.5344 10.6553 11.875 9 11.875Z" fill="#00859C"/>
</svg>
