<svg width="21" height="20" viewBox="0 0 21 20" fill="none" xmlns="http://www.w3.org/2000/svg">
<path d="M20.5 16.7301C20.5 16.929 20.421 17.1197 20.2803 17.2604C20.1397 17.401 19.9489 17.4801 19.75 17.4801H14.65C14.483 18.1029 14.1151 18.6533 13.6034 19.0458C13.0918 19.4383 12.4649 19.6511 11.82 19.6511C11.1751 19.6511 10.5482 19.4383 10.0366 19.0458C9.52491 18.6533 9.15704 18.1029 8.99 17.4801H1.25C1.05109 17.4801 0.860322 17.401 0.71967 17.2604C0.579018 17.1197 0.5 16.929 0.5 16.7301C0.5 16.5311 0.579018 16.3404 0.71967 16.1997C0.860322 16.0591 1.05109 15.9801 1.25 15.9801H8.99C9.15704 15.3572 9.52491 14.8068 10.0366 14.4143C10.5482 14.0218 11.1751 13.809 11.82 13.809C12.4649 13.809 13.0918 14.0218 13.6034 14.4143C14.1151 14.8068 14.483 15.3572 14.65 15.9801H19.75C19.9489 15.9801 20.1397 16.0591 20.2803 16.1997C20.421 16.3404 20.5 16.5311 20.5 16.7301ZM20.5 3.52005C20.5 3.71896 20.421 3.90973 20.2803 4.05038C20.1397 4.19103 19.9489 4.27005 19.75 4.27005H17.3C17.133 4.89293 16.7651 5.4433 16.2534 5.83582C15.7418 6.22835 15.1149 6.44111 14.47 6.44111C13.8251 6.44111 13.1982 6.22835 12.6866 5.83582C12.1749 5.4433 11.807 4.89293 11.64 4.27005H1.25C1.15151 4.27005 1.05398 4.25065 0.962987 4.21296C0.871993 4.17527 0.789314 4.12003 0.71967 4.05038C0.650026 3.98074 0.594781 3.89806 0.55709 3.80707C0.519399 3.71607 0.5 3.61854 0.5 3.52005C0.5 3.42156 0.519399 3.32403 0.55709 3.23304C0.594781 3.14205 0.650026 3.05937 0.71967 2.98972C0.789314 2.92008 0.871993 2.86483 0.962987 2.82714C1.05398 2.78945 1.15151 2.77005 1.25 2.77005H11.64C11.807 2.14718 12.1749 1.59681 12.6866 1.20428C13.1982 0.811756 13.8251 0.598999 14.47 0.598999C15.1149 0.598999 15.7418 0.811756 16.2534 1.20428C16.7651 1.59681 17.133 2.14718 17.3 2.77005H19.75C19.8489 2.76871 19.947 2.78719 20.0386 2.8244C20.1302 2.86162 20.2134 2.91681 20.2833 2.98672C20.3532 3.05664 20.4084 3.13985 20.4457 3.23146C20.4829 3.32306 20.5013 3.42119 20.5 3.52005ZM20.5 10.1201C20.5013 10.2189 20.4829 10.317 20.4457 10.4086C20.4084 10.5003 20.3532 10.5835 20.2833 10.6534C20.2134 10.7233 20.1302 10.7785 20.0386 10.8157C19.947 10.8529 19.8489 10.8714 19.75 10.8701H8.05C7.88296 11.4929 7.51509 12.0433 7.00342 12.4358C6.49176 12.8283 5.86489 13.0411 5.22 13.0411C4.57511 13.0411 3.94824 12.8283 3.43658 12.4358C2.92491 12.0433 2.55704 11.4929 2.39 10.8701H1.25C1.05109 10.8701 0.860322 10.791 0.71967 10.6504C0.579018 10.5097 0.5 10.319 0.5 10.1201C0.5 9.92114 0.579018 9.73038 0.71967 9.58972C0.860322 9.44907 1.05109 9.37005 1.25 9.37005H2.39C2.55704 8.74718 2.92491 8.19681 3.43658 7.80428C3.94824 7.41176 4.57511 7.199 5.22 7.199C5.86489 7.199 6.49176 7.41176 7.00342 7.80428C7.51509 8.19681 7.88296 8.74718 8.05 9.37005H19.75C19.9489 9.37005 20.1397 9.44907 20.2803 9.58972C20.421 9.73038 20.5 9.92114 20.5 10.1201Z" fill="#E6F8FC"/>
</svg>
