<svg width="20" height="20" viewBox="0 0 20 20" fill="none" xmlns="http://www.w3.org/2000/svg">
<path fill-rule="evenodd" clip-rule="evenodd" d="M8.99999 0.125C7.64459 0.125115 6.30886 0.449364 5.10425 1.07069C3.89964 1.69202 2.86109 2.59242 2.07523 3.69675C1.28937 4.80109 0.779004 6.07735 0.586702 7.41904C0.394401 8.76074 0.525743 10.129 0.969772 11.4096C1.4138 12.6902 2.15764 13.8461 3.13923 14.7807C4.12082 15.7154 5.3117 16.4018 6.61251 16.7826C7.91332 17.1634 9.28634 17.2276 10.617 16.9699C11.9477 16.7122 13.1974 16.14 14.262 15.301L17.914 18.953C18.1026 19.1352 18.3552 19.236 18.6174 19.2337C18.8796 19.2314 19.1304 19.1262 19.3158 18.9408C19.5012 18.7554 19.6064 18.5046 19.6087 18.2424C19.6109 17.9802 19.5102 17.7276 19.328 17.539L15.676 13.887C16.664 12.6336 17.2792 11.1274 17.4511 9.54073C17.623 7.95405 17.3448 6.35102 16.6482 4.91509C15.9516 3.47917 14.8649 2.26836 13.5123 1.42123C12.1597 0.574106 10.596 0.124893 8.99999 0.125ZM2.49999 8.625C2.49999 6.90109 3.18481 5.24779 4.4038 4.02881C5.62279 2.80982 7.27609 2.125 8.99999 2.125C10.7239 2.125 12.3772 2.80982 13.5962 4.02881C14.8152 5.24779 15.5 6.90109 15.5 8.625C15.5 10.3489 14.8152 12.0022 13.5962 13.2212C12.3772 14.4402 10.7239 15.125 8.99999 15.125C7.27609 15.125 5.62279 14.4402 4.4038 13.2212C3.18481 12.0022 2.49999 10.3489 2.49999 8.625Z" fill="#B5B5B5"/>
</svg>
