<svg width="56" height="57" viewBox="0 0 56 57" fill="none" xmlns="http://www.w3.org/2000/svg">
<rect x="0.5" y="0.625" width="55" height="55" rx="9.5" fill="#E6F8FC"/>
<rect x="0.5" y="0.625" width="55" height="55" rx="9.5" stroke="#B0EAF4"/>
<path fill-rule="evenodd" clip-rule="evenodd" d="M28.0116 13.1271C26.5549 13.1068 25.1086 13.3761 23.7569 13.9195C22.4052 14.4629 21.1749 15.2695 20.1376 16.2924C19.1003 17.3153 18.2766 18.5342 17.7144 19.8782C17.1522 21.2222 16.8627 22.6645 16.8627 24.1214C16.8627 25.5782 17.1522 27.0206 17.7144 28.3646C18.2766 29.7086 19.1003 30.9274 20.1376 31.9504C21.1749 32.9733 22.4052 33.7799 23.7569 34.3233C25.1086 34.8667 26.5549 35.136 28.0116 35.1156C30.9277 35.1156 33.7244 33.9572 35.7864 31.8952C37.8485 29.8332 39.0069 27.0365 39.0069 24.1203C39.0069 21.2042 37.8485 18.4075 35.7864 16.3455C33.7244 14.2834 30.9277 13.1271 28.0116 13.1271ZM28.4471 18.3255L29.9124 21.2733C29.945 21.3477 29.9967 21.4121 30.0623 21.46C30.1279 21.5078 30.205 21.5375 30.2857 21.5458L33.5382 22.0393C33.6313 22.0512 33.7191 22.0894 33.7913 22.1495C33.8635 22.2095 33.917 22.2889 33.9456 22.3784C33.9742 22.4678 33.9767 22.5635 33.9528 22.6543C33.9289 22.7451 33.8796 22.8272 33.8107 22.891L31.4121 25.1737C31.3764 25.2419 31.3577 25.3177 31.3577 25.3947C31.3577 25.4717 31.3764 25.5475 31.4121 25.6157L31.8712 28.851C31.8905 28.9442 31.8825 29.0409 31.8481 29.1296C31.8137 29.2183 31.7544 29.2952 31.6773 29.351C31.6002 29.4067 31.5086 29.439 31.4136 29.444C31.3186 29.4489 31.2242 29.4263 31.1418 29.3788L28.2454 27.8469C28.1703 27.8129 28.0887 27.7952 28.0062 27.7952C27.9237 27.7952 27.8421 27.8129 27.767 27.8469L24.8707 29.3788C24.7882 29.4263 24.6938 29.4489 24.5988 29.444C24.5038 29.439 24.4122 29.4067 24.3351 29.351C24.2581 29.2952 24.1987 29.2183 24.1643 29.1296C24.1299 29.0409 24.1219 28.9442 24.1412 28.851L24.684 25.6157C24.7073 25.5407 24.7116 25.461 24.6966 25.3839C24.6817 25.3068 24.6478 25.2346 24.5982 25.1737L22.1975 22.8738C22.133 22.8094 22.0876 22.7285 22.0663 22.6399C22.045 22.5513 22.0487 22.4585 22.0769 22.3719C22.1051 22.2852 22.1568 22.2081 22.2262 22.149C22.2955 22.0899 22.3799 22.0512 22.4699 22.0371L25.7246 21.563C25.8053 21.5546 25.8824 21.525 25.948 21.4771C26.0136 21.4293 26.0653 21.3649 26.0979 21.2905L27.5632 18.3427C27.6022 18.259 27.6639 18.188 27.7413 18.1376C27.8186 18.0873 27.9086 18.0596 28.0009 18.0578C28.0932 18.056 28.1841 18.0802 28.2634 18.1275C28.3426 18.1748 28.407 18.2434 28.4492 18.3255H28.4471ZM39.3888 31.7087C37.5397 34.4796 34.7444 36.4817 31.5258 37.3405L34.5551 42.5882C34.6611 42.7719 34.8192 42.9202 35.0094 43.0141C35.1996 43.108 35.4134 43.1435 35.6237 43.1159C35.8341 43.0884 36.0315 42.9991 36.1911 42.8593C36.3507 42.7195 36.4653 42.5356 36.5204 42.3307L37.6145 38.2566L41.6865 39.3486C41.8914 39.4033 42.1079 39.396 42.3087 39.3277C42.5094 39.2594 42.6854 39.1331 42.8145 38.9648C42.9435 38.7966 43.0197 38.5938 43.0336 38.3822C43.0474 38.1706 42.9983 37.9596 42.8923 37.776L39.3888 31.7087ZM24.5081 37.3426C21.2892 36.4871 18.4923 34.488 16.6408 31.7194L13.1438 37.776C13.0378 37.9596 12.9886 38.1706 13.0024 38.3822C13.0163 38.5938 13.0925 38.7966 13.2216 38.9648C13.3506 39.1331 13.5266 39.2594 13.7274 39.3277C13.9281 39.396 14.1446 39.4033 14.3495 39.3486L18.4237 38.2566L19.5157 42.3307C19.5707 42.5356 19.6853 42.7195 19.8449 42.8593C20.0045 42.9991 20.2019 43.0884 20.4123 43.1159C20.6226 43.1435 20.8364 43.108 21.0266 43.0141C21.2168 42.9202 21.3749 42.7719 21.4809 42.5882L24.5081 37.3426Z" fill="#00AAC8"/>
</svg>
