<svg width="56" height="57" viewBox="0 0 56 57" fill="none" xmlns="http://www.w3.org/2000/svg">
<rect x="0.5" y="0.625" width="55" height="55" rx="9.5" fill="#E6F8FC"/>
<rect x="0.5" y="0.625" width="55" height="55" rx="9.5" stroke="#B0EAF4"/>
<path d="M26.5 19.1249H31L35.935 14.1749C36.0745 14.0343 36.2404 13.9227 36.4231 13.8466C36.6059 13.7704 36.802 13.7312 37 13.7312C37.198 13.7312 37.3941 13.7704 37.5769 13.8466C37.7597 13.9227 37.9256 14.0343 38.065 14.1749L41.935 18.0599C42.2144 18.3409 42.3712 18.7211 42.3712 19.1174C42.3712 19.5137 42.2144 19.8939 41.935 20.1749L38.5 23.6249H26.5V26.6249C26.5 27.0227 26.342 27.4043 26.0607 27.6856C25.7794 27.9669 25.3978 28.1249 25 28.1249C24.6022 28.1249 24.2206 27.9669 23.9393 27.6856C23.658 27.4043 23.5 27.0227 23.5 26.6249V22.1249C23.5 21.3292 23.8161 20.5662 24.3787 20.0036C24.9413 19.441 25.7044 19.1249 26.5 19.1249ZM17.5 26.6249V32.6249L14.065 36.0599C13.7856 36.3409 13.6288 36.7211 13.6288 37.1174C13.6288 37.5137 13.7856 37.8939 14.065 38.1749L17.935 42.0599C18.0744 42.2005 18.2403 42.3121 18.4231 42.3882C18.6059 42.4644 18.802 42.5036 19 42.5036C19.198 42.5036 19.3941 42.4644 19.5769 42.3882C19.7597 42.3121 19.9256 42.2005 20.065 42.0599L26.5 35.6249H32.5C32.8978 35.6249 33.2794 35.4669 33.5607 35.1856C33.842 34.9043 34 34.5227 34 34.1249V32.6249H35.5C35.8978 32.6249 36.2794 32.4669 36.5607 32.1856C36.842 31.9043 37 31.5227 37 31.1249V29.6249H38.5C38.8978 29.6249 39.2794 29.4669 39.5607 29.1856C39.842 28.9043 40 28.5227 40 28.1249V26.6249H29.5V28.1249C29.5 28.9205 29.1839 29.6836 28.6213 30.2462C28.0587 30.8088 27.2957 31.1249 26.5 31.1249H23.5C22.7044 31.1249 21.9413 30.8088 21.3787 30.2462C20.8161 29.6836 20.5 28.9205 20.5 28.1249V23.6249L17.5 26.6249Z" fill="#00AAC8"/>
</svg>
