<svg width="56" height="57" viewBox="0 0 56 57" fill="none" xmlns="http://www.w3.org/2000/svg">
<rect x="0.5" y="0.625" width="55" height="55" rx="9.5" fill="#E6F8FC"/>
<rect x="0.5" y="0.625" width="55" height="55" rx="9.5" stroke="#B0EAF4"/>
<path fill-rule="evenodd" clip-rule="evenodd" d="M14.5 17.625C14.5 16.8294 14.8161 16.0663 15.3787 15.5037C15.9413 14.9411 16.7044 14.625 17.5 14.625H38.5C39.2956 14.625 40.0587 14.9411 40.6213 15.5037C41.1839 16.0663 41.5 16.8294 41.5 17.625V38.625C41.5 39.4206 41.1839 40.1837 40.6213 40.7463C40.0587 41.3089 39.2956 41.625 38.5 41.625H17.5C16.7044 41.625 15.9413 41.3089 15.3787 40.7463C14.8161 40.1837 14.5 39.4206 14.5 38.625V17.625ZM30.9085 21.6075C30.379 20.283 28.4815 20.358 28.0555 21.7185L25.4275 30.1275L24.8455 28.962C24.7197 28.7105 24.5263 28.499 24.2871 28.3512C24.0479 28.2034 23.7722 28.1251 23.491 28.125H20.5C20.1022 28.125 19.7206 28.283 19.4393 28.5643C19.158 28.8456 19 29.2272 19 29.625C19 30.0228 19.158 30.4044 19.4393 30.6857C19.7206 30.967 20.1022 31.125 20.5 31.125H22.573L24.391 34.7625C25.0015 35.982 26.7865 35.838 27.193 34.5375L29.674 26.598L31.1035 30.1725C31.333 30.7485 31.891 31.125 32.5105 31.125H35.5C35.8978 31.125 36.2794 30.967 36.5607 30.6857C36.842 30.4044 37 30.0228 37 29.625C37 29.2272 36.842 28.8456 36.5607 28.5643C36.2794 28.283 35.8978 28.125 35.5 28.125H33.5155L30.9085 21.6075Z" fill="#00AAC8"/>
</svg>
