<svg width="56" height="57" viewBox="0 0 56 57" fill="none" xmlns="http://www.w3.org/2000/svg">
<rect x="0.5" y="0.625" width="55" height="55" rx="9.5" fill="#E6F8FC"/>
<rect x="0.5" y="0.625" width="55" height="55" rx="9.5" stroke="#B0EAF4"/>
<path d="M28 25.125C29.5913 25.125 31.1174 24.4929 32.2426 23.3676C33.3679 22.2424 34 20.7163 34 19.125C34 17.5337 33.3679 16.0076 32.2426 14.8824C31.1174 13.7571 29.5913 13.125 28 13.125C26.4087 13.125 24.8826 13.7571 23.7574 14.8824C22.6321 16.0076 22 17.5337 22 19.125C22 20.7163 22.6321 22.2424 23.7574 23.3676C24.8826 24.4929 26.4087 25.125 28 25.125ZM18.25 29.625C19.2446 29.625 20.1984 29.2299 20.9017 28.5267C21.6049 27.8234 22 26.8696 22 25.875C22 24.8804 21.6049 23.9266 20.9017 23.2233C20.1984 22.5201 19.2446 22.125 18.25 22.125C17.2554 22.125 16.3016 22.5201 15.5983 23.2233C14.8951 23.9266 14.5 24.8804 14.5 25.875C14.5 26.8696 14.8951 27.8234 15.5983 28.5267C16.3016 29.2299 17.2554 29.625 18.25 29.625ZM41.5 25.875C41.5 26.8696 41.1049 27.8234 40.4016 28.5267C39.6984 29.2299 38.7446 29.625 37.75 29.625C36.7554 29.625 35.8016 29.2299 35.0984 28.5267C34.3951 27.8234 34 26.8696 34 25.875C34 24.8804 34.3951 23.9266 35.0984 23.2233C35.8016 22.5201 36.7554 22.125 37.75 22.125C38.7446 22.125 39.6984 22.5201 40.4016 23.2233C41.1049 23.9266 41.5 24.8804 41.5 25.875ZM28 26.625C29.9891 26.625 31.8968 27.4152 33.3033 28.8217C34.7098 30.2282 35.5 32.1359 35.5 34.125V43.125H20.5V34.125C20.5 32.1359 21.2902 30.2282 22.6967 28.8217C24.1032 27.4152 26.0109 26.625 28 26.625ZM17.5 34.125C17.5 33.0855 17.65 32.082 17.932 31.134L17.677 31.155C16.3913 31.2962 15.203 31.907 14.3399 32.8703C13.4768 33.8336 12.9997 35.0816 13 36.375V43.125H17.5V34.125ZM43 43.125V36.375C43.0002 35.0376 42.4899 33.7505 41.5733 32.7765C40.6567 31.8025 39.403 31.215 38.068 31.134C38.3485 32.082 38.5 33.0855 38.5 34.125V43.125H43Z" fill="#00AAC8"/>
</svg>
