<svg width="56" height="57" viewBox="0 0 56 57" fill="none" xmlns="http://www.w3.org/2000/svg">
<rect x="0.5" y="0.625" width="55" height="55" rx="9.5" fill="#E6F8FC"/>
<rect x="0.5" y="0.625" width="55" height="55" rx="9.5" stroke="#B0EAF4"/>
<path fill-rule="evenodd" clip-rule="evenodd" d="M22.75 14.625C23.7446 14.625 24.6984 15.0201 25.4017 15.7233C26.1049 16.4266 26.5 17.3804 26.5 18.375V20.625H29.5V18.375C29.4999 17.4229 29.8618 16.5064 30.5126 15.8114C31.1633 15.1164 32.054 14.695 33.004 14.6325L33.3385 14.625C34.2826 14.6253 35.2028 14.9225 35.9687 15.4747C36.7345 16.0268 37.3073 16.8058 37.606 17.7015L42.409 32.109C42.8207 33.027 43.022 34.0255 42.9981 35.0314C42.9742 36.0372 42.7258 37.025 42.2709 37.9225C41.8161 38.82 41.1664 39.6044 40.3693 40.2184C39.5723 40.8324 38.648 41.2605 37.6642 41.4713C36.6804 41.6821 35.6619 41.6703 34.6833 41.4368C33.7046 41.2032 32.7905 40.7539 32.0079 40.1215C31.2253 39.4892 30.5939 38.6899 30.16 37.7822C29.7261 36.8744 29.5006 35.8811 29.5 34.875V23.625H26.5V34.875C26.4994 35.8811 26.2739 36.8744 25.84 37.7822C25.4061 38.6899 24.7747 39.4892 23.9921 40.1215C23.2095 40.7539 22.2954 41.2032 21.3167 41.4368C20.3381 41.6703 19.3196 41.6821 18.3358 41.4713C17.352 41.2605 16.4277 40.8324 15.6307 40.2184C14.8336 39.6044 14.1839 38.82 13.7291 37.9225C13.2742 37.025 13.0258 36.0372 13.0019 35.0314C12.978 34.0255 13.1793 33.027 13.591 32.109L18.3925 17.7015C18.6765 16.8502 19.2086 16.1032 19.9204 15.5566C20.6322 15.01 21.4912 14.6887 22.387 14.634L22.75 14.625ZM19.75 31.125C17.7175 31.125 16 32.8485 16 34.875C16 35.6167 16.2199 36.3417 16.632 36.9584C17.044 37.5751 17.6297 38.0557 18.3149 38.3395C19.0002 38.6234 19.7542 38.6976 20.4816 38.5529C21.209 38.4083 21.8772 38.0511 22.4017 37.5266C22.9261 37.0022 23.2833 36.334 23.4279 35.6066C23.5726 34.8792 23.4984 34.1252 23.2145 33.4399C22.9307 32.7547 22.4501 32.169 21.8334 31.757C21.2167 31.3449 20.4917 31.125 19.75 31.125ZM36.25 31.125C35.5083 31.125 34.7833 31.3449 34.1666 31.757C33.5499 32.169 33.0693 32.7547 32.7855 33.4399C32.5016 34.1252 32.4274 34.8792 32.5721 35.6066C32.7167 36.334 33.0739 37.0022 33.5984 37.5266C34.1228 38.0511 34.791 38.4083 35.5184 38.5529C36.2458 38.6976 36.9998 38.6234 37.6851 38.3395C38.3703 38.0557 38.956 37.5751 39.368 36.9584C39.7801 36.3417 40 35.6167 40 34.875C40 32.8485 38.2825 31.125 36.25 31.125Z" fill="#00AAC8"/>
</svg>
