<svg width="56" height="57" viewBox="0 0 56 57" fill="none" xmlns="http://www.w3.org/2000/svg">
<rect x="0.5" y="0.625" width="55" height="55" rx="9.5" fill="#E6F8FC"/>
<rect x="0.5" y="0.625" width="55" height="55" rx="9.5" stroke="#B0EAF4"/>
<path d="M29.5 14.625C23.845 14.625 19.285 19.05 19 24.615L16.12 28.41C15.76 28.875 16.12 29.625 16.75 29.625H19V34.125C19 35.79 20.335 37.125 22 37.125H23.5V41.625H34V34.59C37.555 32.91 40 29.325 40 25.125C40 19.335 35.32 14.625 29.5 14.625ZM31 31.125H28V29.625H31V31.125ZM33.4 24.375C33.0005 25.0495 32.4317 25.6079 31.75 25.995V28.125H27.25V25.995C25.105 24.75 24.355 22.005 25.6 19.875C26.845 17.745 29.605 16.965 31.75 18.195C33.895 19.425 34.645 22.2 33.4 24.375Z" fill="#00AAC8"/>
</svg>
