<svg width="54" height="55" viewBox="0 0 54 55" fill="none" xmlns="http://www.w3.org/2000/svg">
<path d="M19.8001 16.3H9.00008C9.00008 12.324 12.2255 9.10018 16.1999 9.10018V5.5C10.2372 5.5 5.3999 10.3341 5.3999 16.3V30.7002C5.3999 32.6793 7.02044 34.2998 9.00008 34.2998H19.8001C21.7792 34.2998 23.3997 32.6793 23.3997 30.7002V19.9002C23.3997 17.9205 21.7792 16.3 19.8001 16.3ZM37.7999 19.9002V23.4998C41.7743 23.4998 44.9997 26.7242 44.9997 30.7002H34.1997C32.2206 30.7002 30.6001 32.3207 30.6001 34.2998V45.0998C30.6001 47.0795 32.2206 48.7 34.1997 48.7H44.9997C46.9794 48.7 48.5999 47.0795 48.5999 45.0998V30.7002C48.5999 24.7337 43.7626 19.9002 37.7999 19.9002Z" fill="#33C9E3"/>
</svg>
